{"title":"Mr Robot S01E06 720p mHD WEBDL EN-SUB x264-[MULVAcoded]","uid":12174553,"size":188310347,"categoryP":"video","categoryS":"hd___tv_shows","magnet":"?xt=urn:btih:16fb724b69c77734e1a30376615c50b0e053d5fb&amp;dn=Mr+Robot+S01E06+720p+mHD+WEBDL+EN-SUB+x264-%5BMULVAcoded%5D&amp;tr=udp%3A%2F%2Ftracker.openbittorrent.com%3A80&amp;tr=udp%3A%2F%2Fopen.demonii.com%3A1337&amp;tr=udp%3A%2F%2Ftracker.coppersurfer.tk%3A6969&amp;tr=udp%3A%2F%2Fexodus.desync.com%3A6969","seeders":11,"leechers":0,"uploader":"Mulva1989","files":1,"time":1438288829,"description":"Mr Robot S01E06 720p mHD WEBDL EN-SUB x264-[MULVAcoded]\n\nElliott goes missing, Mr. Robot tries to pull fsociety back together and Angela goes head-to-head with an old nemesis.\n\nScreens @ &lt;a href=&quot;\nhttps://yuq.me/users/50/321/dkIHjz9xPR.png&quot; rel=&quot;nofollow&quot; target=&quot;_NEW&quot;&gt;\nhttps://yuq.me/users/50/321/dkIHjz9xPR.png&lt;/a&gt; &lt;a href=&quot;\nhttps://yuq.me/users/50/321/6hs7McSmFx.jpg&quot; rel=&quot;nofollow&quot; target=&quot;_NEW&quot;&gt;\nhttps://yuq.me/users/50/321/6hs7McSmFx.jpg&lt;/a&gt;\n\nVideo\nID : 1\nFormat : AVC\nFormat/Info : Advanced Video Codec\nFormat profile : &lt;a class=&quot;__cf_email__&quot; href=&quot;/cdn-cgi/l/email-protection&quot; data-cfemail=&quot;d098b9b7b8909ce5fee0&quot;&gt;[email&amp;#160;protected]&lt;/a&gt;&lt;script data-cfhash='f9e31' type=&quot;text/javascript&quot;&gt;\n/* &lt;![CDATA[ */!function(){try{var t=&quot;currentScript&quot;in document?document.currentScript:function(){for(var t=document.getElementsByTagName(&quot;script&quot;),e=t.length;e--;)if(t[e].getAttribute(&quot;data-cfhash&quot;))return t[e]}();if(t&amp;&amp;t.previousSibling){var e,r,n,i,c=t.previousSibling,a=c.getAttribute(&quot;data-cfemail&quot;);if(a){for(e=&quot;&quot;,r=parseInt(a.substr(0,2),16),n=2;a.length-n;n+=2)i=parseInt(a.substr(n,2),16)^r,e+=String.fromCharCode(i);e=document.createTextNode(e),c.parentNode.replaceChild(e,c)}t.parentNode.removeChild(t);}}catch(u){}}()/* ]]&gt; */&lt;/script&gt;\nFormat settings, CABAC : Yes\nFormat settings, ReFrames : 16 frames\nCodec ID : avc1\nCodec ID/Info : Advanced Video Coding\nDuration : 44mn 38s\nBit rate : 461 Kbps\nWidth : 1 280 pixels\nHeight : 720 pixels\nDisplay aspect ratio : 16:9\nFrame rate mode : Variable\nFrame rate : 23.976 fps\nMinimum frame rate : 23.974 fps\nMaximum frame rate : 90 000.000 fps\nColor space : YUV\nChroma subsampling : 4:2:0\nBit depth : 8 bits\nScan type : Progressive\nBits/(Pixel*Frame) : 0.021\nStream size : 147 MiB (82%)\nWriting library : x264 core 130 r2273 b3065e6\nEncoding settings : cabac=1 / ref=16 / deblock=1:0:0 / analyse=0x3:0x113 / me=umh / subme=8 / psy=1 / psy_rd=1.00:0.00 / mixed_ref=1 / me_range=16 / chroma_me=1 / trellis=1 / 8x8dct=1 / cqm=0 / deadzone=21,11 / fast_pskip=1 / chroma_qp_offset=-2 / threads=6 / lookahead_threads=3 / sliced_threads=0 / nr=0 / decimate=1 / interlaced=0 / bluray_compat=0 / constrained_intra=0 / bframes=16 / b_pyramid=2 / b_adapt=2 / b_bias=0 / direct=3 / weightb=1 / open_gop=0 / weightp=2 / keyint=240 / keyint_min=24 / scenecut=40 / intra_refresh=0 / rc_lookahead=50 / rc=crf / mbtree=1 / crf=26.0 / qcomp=0.60 / qpmin=0 / qpmax=69 / qpstep=4 / ip_ratio=1.40 / aq=1:1.00\nEncoded date : UTC 2015-07-30 16:57:04\nTagged date : UTC 2015-07-30 18:30:15\nColor primaries : BT.709\nTransfer characteristics : BT.709\nMatrix coefficients : BT.709\nColor range : Limited\n\nAudio\nID : 2\nFormat : AAC\nFormat/Info : Advanced Audio Codec\nFormat profile : LC\nCodec ID : 40\nDuration : 44mn 38s\nBit rate mode : Variable\nBit rate : 96.0 Kbps\nMaximum bit rate : 148 Kbps\nChannel(s) : 2 channels\nChannel positions : Front: L R\nSampling rate : 48.0 KHz\nCompression mode : Lossy\nStream size : 30.6 MiB (17%)\nTitle : Stereo\nEncoded date : UTC 2015-07-30 16:57:04\nTagged date : UTC 2015-07-30 18:30:14\n\nText\nID : 3\nFormat : Timed Text\nMuxing mode : sbtl\nCodec ID : tx3g\nDuration : 43mn 58s\nBit rate mode : Variable\nBit rate : 110 bps\nStream size : 35.3 KiB (0%)\nLanguage : English\nEncoded date : UTC 2015-07-30 16:57:04\nTagged date : UTC 2015-07-30 18:30:14","torrent":{"xt":"urn:btih:16fb724b69c77734e1a30376615c50b0e053d5fb","amp;dn":"Mr+Robot+S01E06+720p+mHD+WEBDL+EN-SUB+x264-%5BMULVAcoded%5D","amp;tr":["udp%3A%2F%2Ftracker.openbittorrent.com%3A80","udp%3A%2F%2Fopen.demonii.com%3A1337","udp%3A%2F%2Ftracker.coppersurfer.tk%3A6969","udp%3A%2F%2Fexodus.desync.com%3A6969"],"infoHash":"16fb724b69c77734e1a30376615c50b0e053d5fb","infoHashBuffer":{"type":"Buffer","data":[22,251,114,75,105,199,119,52,225,163,3,118,97,92,80,176,224,83,213,251]},"announce":[],"urlList":[]}}